<svg width="1024" height="1024" viewBox="0 0 1024 1024" fill="none" xmlns="http://www.w3.org/2000/svg">
<path d="M236.88 482.206L290.931 436.852L373.233 534.936C405.294 573.144 410.131 621.492 349.09 672.71C288.283 723.734 241.51 710.575 209.45 672.367L127.148 574.283L181.198 528.929L259.786 622.586C278.944 645.418 299.125 636.821 310.774 627.047C322.656 617.077 334.626 598.695 315.468 575.863L236.88 482.206ZM376.347 365.18L376.542 365.413C421.973 327.292 469.565 306.414 513.551 358.834C557.341 411.021 528.711 454.498 483.281 492.619L468.603 504.935L498.513 540.581L444.462 585.935L307.618 422.85L376.347 365.18ZM455.914 437.767L455.719 437.534C470.862 424.827 466.687 410.862 460.432 403.406C453.98 395.718 440.952 389.182 425.809 401.888L400.181 423.393L430.287 459.271L455.914 437.767ZM540.614 227.343L540.81 227.576C586.241 189.455 633.833 168.577 677.818 220.997C721.608 273.184 692.979 316.661 647.548 354.782L632.871 367.098L662.781 402.744L608.73 448.098L471.886 285.013L540.614 227.343ZM620.182 299.93L619.987 299.697C635.13 286.99 630.955 273.025 624.699 265.569C618.248 257.881 605.22 251.345 590.076 264.051L564.449 285.556L594.554 321.434L620.182 299.93Z" fill="white"/>
<path d="M242.103 774.322L762.905 341.982L886.492 521.102L242.102 774.322L242.103 774.322Z" fill="white"/>
</svg>
